# xmcd
#
# Track frame offsets:
#	150
#	3742
#	32647
#	62745
#	88482
#	120180
#	143880
#	153617
#	174880
#	214357
#	233550
#	238057
#
# Disc length: 3519 seconds
#
# Revision: 1
# Processed by: cddbd v1.5.1PL0 Copyright (c) Steve Scherf et al.
# Submitted via: audiograbber 1.81.02
#
DISCID=a00dbd0c
DTITLE=Various Artist - Ein feste Burg ist unser Gott
DYEAR=2005
DGENRE=Christian Rock
TTITLE0=Verleih uns Frieden gnaediglich
TTITLE1=Nun freut euch, lieben Christen gmein
TTITLE2=Ach Gott, vom Himmel sieh darein
TTITLE3=Aus tiefer Not schrei ich zu dir
TTITLE4=Wir glauben all an einen Gott
TTITLE5=Ein feste Burg ist unser Gott
TTITLE6=Erhalt uns, Herr, bei deinem Wort
TTITLE7=Nun bitten wir den Heiligen Geist
TTITLE8=Vater unser im Himmelreich
TTITLE9=Es wolle Gott uns gnaedig sein
TTITLE10=Verleih uns Frieden gnaediglich
TTITLE11=Ein feste Burg ist unser Gott (Bonustrack)
EXTD=www.gerth.de - ArtNo. 938919
EXTT0=
EXTT1=
EXTT2=
EXTT3=
EXTT4=
EXTT5=
EXTT6=
EXTT7=
EXTT8=
EXTT9=
EXTT10=
EXTT11=
PLAYORDER=
